<svg height="512pt" viewBox="0 -68 512 512" width="512pt" xmlns="http://www.w3.org/2000/svg">
  <path d="m370.148438 98.382812c0 48.808594-39.570313 88.378907-88.378907 88.378907-4.507812 0-8.941406-.339844-13.269531-.992188.011719 0 .019531-.007812.03125-.007812 1.089844-.300781 2.140625-.691407 3.160156-1.140625 8.949219-3.898438 15.109375-12.820313 15.109375-23.179688 0-7-2.839843-13.320312-7.421875-17.910156-4.578125-4.570312-10.898437-7.410156-17.898437-7.410156h-59.640625c-5.417969-11.441406-8.449219-24.238282-8.449219-37.738282 0-.863281.007813-1.722656.039063-2.582031 0-.039062 0-.089843.011718-.128906.027344-1.3125.097656-2.601563.199219-3.890625.929687-13.503906 5.140625-26.855469 12.089844-38.46875 1.972656-3.300781 4.148437-6.457031 6.507812-9.492188.980469-1.257812 2.011719-2.488281 3.070313-3.6875 16.191406-18.472656 39.960937-30.132812 66.460937-30.132812 48.820313 0 88.378907 39.570312 88.378907 88.382812zm0 0" fill="#ffc15a"/>
  <path d="m442.773438 209.382812h-72.277344l-79.773438 33.019532c-13.953125 5.777344-20.527344 21.816406-14.640625 35.726562l.269531.636719c5.9375 14.019531 21.773438 20.742187 35.851563 15.3125 22.636719-8.734375 52.324219-20.148437 52.324219-20.148437l-76.441406 29.390624c-16.121094 6.199219-33.726563 7.449219-50.566407 3.59375l-78.316406-17.929687c-14.351563-3.289063-28.601563 5.855469-31.597656 20.269531-2.863281 13.773438 5.625 27.355469 19.257812 30.820313l93.449219 23.75c17.617188 4.480469 36.199219 3.316406 53.121094-3.320313l120.601562-47.304687h28.738282zm0 0" fill="#ffd4be"/>
  <path d="m442.773438 209.382812h-72.277344l-79.773438 33.019532c-13.953125 5.777344-20.527344 21.816406-14.640625 35.726562l.269531.636719c5.9375 14.019531 21.773438 20.742187 35.851563 15.3125 22.636719-8.734375 52.324219-20.148437 52.324219-20.148437l-76.441406 29.390624c-16.121094 6.199219-33.726563 7.449219-50.566407 3.59375l-78.316406-17.929687c-14.351563-3.289063-28.601563 5.855469-31.597656 20.269531-2.863281 13.773438 5.625 27.355469 19.257812 30.820313l93.449219 23.75c17.617188 4.480469 36.199219 3.316406 53.121094-3.320313l120.601562-47.304687h28.738282zm0 0" fill="#ffd4be"/>
  <path d="m442.773438 190.933594h59.226562v137.53125h-59.226562zm0 0" fill="#98a1b3"/>
  <path d="m10 59.699219h59.226562v137.53125h-59.226562zm0 0" fill="#98a1b3"/>
  <path d="m286.800781 161.445312c0 10.359376-6.160156 19.28125-15.109375 23.179688-1.019531.449219-2.070312.839844-3.160156 1.140625-2.230469.648437-4.601562.988281-7.050781.988281h-192.25v-113.4375h12.769531c5.839844 0 11.601562-1.390625 16.789062-4.050781l65.230469-42.5625c12.492188-6.40625 27.550781-5.148437 38.808594 3.261719l12.933594 9.648437c-13.390625 15.023438-21.722657 34.632813-22.332031 56.191407h-5.980469c-5.570313 0-10.621094 2.261718-14.257813 5.898437-3.652344 3.652344-5.902344 8.691406-5.902344 14.261719 0 11.140625 9.019532 20.160156 20.160157 20.160156h74.03125c7 0 13.320312 2.839844 17.898437 7.410156 4.582032 4.589844 7.421875 10.910156 7.421875 17.910156zm0 0" fill="#ffd4be"/>
  <path d="m193.441406 95.671875c.027344-1.3125.097656-2.601563.199219-3.890625-.101563 1.289062-.171875 2.589844-.199219 3.890625zm0 0" fill="#ffd4be"/>
  <path d="m502 180.933594h-59.226562c-5.523438 0-10 4.476562-10 10v8.449218h-62.277344c-1.3125 0-2.613282.257813-3.824219.761719l-79.773437 33.015625c-9.230469 3.824219-16.402344 11.019532-20.1875 20.265625-3.789063 9.242188-3.730469 19.398438.164062 28.601563l.269531.636718c2.3125 5.460938 5.71875 10.105469 9.855469 13.777344-12.140625 3.292969-24.871094 3.558594-37.246094.726563l-78.316406-17.933594c-9.582031-2.191406-19.417969-.476563-27.691406 4.832031-8.269532 5.304688-13.929688 13.53125-15.929688 23.152344-3.964844 19.0625 7.714844 37.753906 26.585938 42.550781l93.445312 23.75c7.914063 2.007813 15.9375 3.007813 23.933594 3.007813 11.988281 0 23.917969-2.246094 35.304688-6.714844l118.84375-46.609375h16.84375v5.261719c0 5.523437 4.480468 10 10 10h59.226562c5.523438 0 10-4.476563 10-10v-137.53125c0-5.523438-4.476562-10-10-10zm-87.964844 122.269531c-1.25 0-2.488281.234375-3.648437.6875l-120.605469 47.304687c-15.066406 5.90625-31.320312 6.921876-47.007812 2.9375l-93.445313-23.75c-8.46875-2.152343-13.710937-10.539062-11.933594-19.09375.898438-4.320312 3.4375-8.011718 7.152344-10.390624 2.65625-1.707032 5.675781-2.585938 8.753906-2.585938 1.21875 0 2.449219.136719 3.671875.417969l78.316406 17.929687c18.84375 4.3125 38.339844 2.929688 56.386719-4.007812l22.726563-8.738282c.46875-.160156.933594-.332031 1.398437-.511718 20.089844-7.746094 45.730469-17.605469 51.242188-19.726563l1.074219-.414062c5.152343-1.980469 7.726562-7.769531 5.746093-12.921875-1.980469-5.15625-7.765625-7.726563-12.925781-5.746094 0 0-.410156.160156-1.167969.449219l-52.121093 20.042969c-8.835938 2.863281-18.390626-1.488282-22.085938-10.21875l-.273438-.640626c-1.800781-4.25-1.824218-8.945312-.074218-13.21875 1.75-4.273437 5.0625-7.601562 9.332031-9.367187l77.9375-32.257813h60.289063v83.820313zm77.964844 15.261719h-39.226562v-117.53125h39.226562zm0 0"/>
  <path d="m97.382812 176.753906h-18.152343v-93.4375h2.769531c7.394531 0 14.777344-1.78125 21.351562-5.152344.308594-.160156.613282-.332031.902344-.523437l64.761719-42.253906c8.949219-4.390625 19.824219-3.390625 27.832031 2.59375l4.675782 3.484375c-.285157.402344-.558594.8125-.835938 1.214844-1.234375 1.796874-2.421875 3.628906-3.539062 5.5-6.914063 11.550781-11.355469 24.546874-12.988282 37.800781-6.816406.734375-13.128906 3.742187-18.042968 8.652343-5.691407 5.691407-8.828126 13.269532-8.828126 21.332032 0 16.628906 13.53125 30.160156 30.160157 30.160156h74.03125c4.085937 0 7.933593 1.59375 10.820312 4.472656 2.898438 2.90625 4.496094 6.757813 4.5 10.84375-.003906 6.101563-3.578125 11.601563-9.144531 14.027344-.644531.285156-1.226562.496094-1.773438.648438-.050781.015624-.097656.03125-.148437.046874-1.347656.390626-2.777344.589844-4.253906.589844h-84.117188c-5.519531 0-10 4.476563-10 10 0 5.523438 4.480469 10 10 10h84.117188c2.582031 0 5.128906-.28125 7.605469-.824218 4.199218.539062 8.453124.832031 12.683593.832031 54.246094 0 98.382813-44.132813 98.382813-98.382813 0-54.246094-44.136719-98.378906-98.382813-98.378906-24.996093 0-48.921875 9.519531-67.027343 26.378906l-5.929688-4.425781c-14.207031-10.613281-33.585938-12.242187-49.359375-4.144531-.308594.15625-.605469.332031-.898437.519531l-64.753907 42.25c-3.65625 1.792969-7.726562 2.734375-11.800781 2.734375h-2.773438v-3.617188c0-5.523437-4.476562-10-10-10h-59.226562c-5.523438 0-10 4.476563-10 10v137.53125c0 5.523438 4.476562 10 10 10h59.226562c5.523438 0 10-4.476562 10-10v-.472656h18.15625c5.519532 0 10-4.476562 10-10 0-5.523437-4.480468-10-10-10zm79.90625-60.789062c0-2.71875 1.054688-5.273438 2.972657-7.1875 1-1 2.175781-1.761719 3.457031-2.265625.542969 6.6875 1.761719 13.234375 3.636719 19.609375-5.558594-.050782-10.066407-4.585938-10.066407-10.15625zm182.859376-17.582032c0 39.144532-28.847657 71.683594-66.40625 77.464844 2.007812-4.507812 3.058593-9.46875 3.058593-14.40625 0-6.058594-1.527343-11.882812-4.386719-17.054687 4.339844-.683594 8.347657-2.6875 11.515626-5.855469 3.960937-3.957031 6.140624-9.21875 6.140624-14.816406v-14.789063c0-11.554687-9.402343-20.957031-20.957031-20.957031h-14.671875c-.527344 0-.957031-.429688-.957031-.957031v-13.960938c0-.527343.429687-.953125.957031-.953125h7.332032.003906.003906 7.332031c.527344 0 .957031.425782.957031.953125 0 5.523438 4.476563 10 10 10 5.519532 0 10-4.476562 10-10 0-10.648437-7.996093-19.449219-18.292968-20.765625v-3.464844c0-5.523437-4.476563-10-10-10-5.523438 0-10 4.476563-10 10v3.464844c-10.300782 1.316406-18.292969 10.117188-18.292969 20.765625v13.960938c0 11.554687 9.402344 20.957031 20.957031 20.957031h14.671875c.527344 0 .957031.429688.957031.957031v14.789063c0 .261718-.09375.488281-.28125.675781-.1875.183594-.410156.277344-.675781.277344h-14.671875c-.527344 0-.957031-.429688-.957031-.953125v-1.355469c0-5.523437-4.476563-10-10-10s-10 4.476563-10 10v1.355469c0 .8125.058594 1.613281.148437 2.40625h-45.195312c-3.351562-8.820313-5.046875-18.128906-5.046875-27.738282 0-14.652343 4.167969-29.320312 12.019531-41.707031 2.257813-3.558593 4.773438-6.953125 7.566406-10.113281 14.878907-16.882812 36.292969-26.5625 58.792969-26.5625 43.21875 0 78.378907 35.160156 78.378907 78.382812zm-300.921876 88.847657h-39.226562v-117.535157h39.226562zm0 0"/>
  <path d="m145.390625 181.210938c-2.347656-3.589844-6.949219-5.242188-11.054687-4.066407-3.96875 1.140625-6.863282 4.691407-7.21875 8.800781-.359376 4.152344 2.050781 8.207032 5.839843 9.914063 3.753907 1.695313 8.273438.882813 11.195313-2.027344 3.332031-3.328125 3.847656-8.710937 1.238281-12.621093zm0 0"/>
</svg>