<?xml version="1.0" standalone="no"?>
<!DOCTYPE svg PUBLIC "-//W3C//DTD SVG 20010904//EN"
 "http://www.w3.org/TR/2001/REC-SVG-20010904/DTD/svg10.dtd">
<svg version="1.0" xmlns="http://www.w3.org/2000/svg"
 width="1701.000000pt" height="1701.000000pt" viewBox="0 0 1701.000000 1701.000000"
 preserveAspectRatio="xMidYMid meet">
<g transform="translate(0.000000,1701.000000) scale(0.100000,-0.100000)"
fill="#000000" stroke="none">
<path d="M11373 16625 c-54 -17 -136 -70 -198 -129 -27 -27 -101 -96 -164
-154 -63 -59 -131 -123 -151 -142 -20 -19 -97 -91 -170 -160 -73 -69 -168
-157 -209 -197 -42 -39 -94 -88 -116 -108 -22 -20 -96 -90 -164 -154 -68 -64
-140 -131 -160 -149 -20 -19 -94 -89 -166 -157 -71 -67 -143 -134 -160 -149
-16 -16 -86 -81 -155 -146 -69 -64 -143 -134 -165 -155 -22 -20 -94 -88 -160
-150 -66 -62 -138 -130 -160 -150 -22 -21 -98 -92 -169 -159 -156 -147 -173
-162 -321 -301 -65 -60 -139 -130 -165 -155 -26 -25 -98 -92 -160 -150 -62
-58 -134 -125 -160 -150 -26 -25 -100 -94 -165 -155 -65 -60 -137 -128 -160
-150 -23 -22 -100 -94 -170 -160 -71 -66 -150 -140 -176 -165 -26 -25 -98 -92
-160 -150 -62 -58 -133 -125 -160 -150 -52 -50 -275 -259 -323 -304 -17 -15
-87 -81 -156 -146 -69 -65 -143 -134 -165 -155 -22 -20 -101 -94 -175 -163
-74 -70 -146 -138 -161 -152 -15 -14 -82 -77 -150 -141 -68 -64 -139 -130
-157 -147 -18 -17 -93 -87 -165 -155 -73 -69 -148 -139 -167 -157 -19 -18 -98
-91 -175 -164 -76 -72 -175 -165 -219 -206 -44 -41 -117 -110 -161 -152 -45
-43 -92 -87 -104 -97 -13 -11 -80 -74 -149 -140 -70 -65 -145 -136 -167 -156
-55 -51 -303 -285 -390 -366 -38 -37 -86 -81 -105 -99 -19 -18 -96 -90 -170
-160 -74 -70 -148 -138 -163 -152 -15 -14 -85 -80 -155 -146 -70 -65 -145
-136 -167 -157 -22 -20 -98 -92 -170 -160 -71 -67 -142 -133 -156 -146 -15
-13 -87 -81 -160 -151 -74 -69 -147 -138 -164 -153 -106 -96 -345 -330 -345
-338 0 -5 -8 -21 -18 -35 -42 -60 -62 -186 -42 -262 15 -61 43 -130 53 -130 4
0 7 -5 7 -11 0 -16 77 -90 121 -115 34 -21 85 -40 125 -49 25 -5 222 -52 299
-71 33 -8 69 -16 80 -18 31 -7 97 -22 275 -65 91 -21 246 -58 345 -81 174 -41
272 -64 550 -130 72 -17 139 -33 150 -36 42 -8 62 -13 130 -29 39 -9 77 -18
85 -20 8 -2 123 -29 255 -61 132 -31 274 -64 315 -74 41 -10 127 -30 190 -45
63 -15 122 -28 130 -30 20 -4 286 -68 420 -100 58 -14 116 -28 130 -31 14 -2
63 -14 110 -25 47 -12 92 -22 100 -24 8 -2 85 -20 170 -40 85 -20 166 -39 180
-42 113 -23 280 -67 280 -73 0 -4 -18 -70 -41 -146 -22 -76 -47 -161 -54 -189
-13 -47 -76 -267 -110 -380 -12 -39 -73 -250 -150 -515 -4 -16 -43 -154 -50
-180 -2 -8 -43 -147 -90 -309 -47 -161 -92 -316 -100 -345 -8 -28 -28 -98 -45
-156 -17 -58 -33 -112 -35 -120 -2 -8 -24 -87 -50 -175 -26 -88 -50 -169 -52
-180 -3 -11 -7 -27 -10 -35 -3 -8 -7 -21 -9 -28 -2 -12 -29 -107 -126 -437
-11 -38 -26 -90 -34 -115 -7 -25 -59 -202 -114 -395 -55 -192 -127 -442 -160
-555 -194 -670 -352 -1217 -355 -1230 -2 -8 -23 -78 -46 -155 -37 -119 -43
-154 -44 -230 0 -81 3 -97 32 -157 36 -77 110 -154 180 -189 42 -21 62 -24
168 -24 176 0 164 -7 506 315 14 14 79 75 144 135 65 61 137 127 159 148 81
76 259 242 276 257 9 8 79 73 154 144 76 72 145 137 155 145 19 17 236 220
376 352 44 42 107 101 140 131 33 31 76 70 95 88 19 18 89 83 155 145 66 62
136 127 155 145 19 18 86 80 149 139 62 58 128 120 146 136 17 17 88 82 156
146 68 64 140 131 159 149 19 18 88 82 154 144 65 61 130 122 145 135 14 13
84 78 155 145 71 66 137 128 147 137 9 8 77 71 149 139 72 68 141 132 153 143
12 10 49 44 82 75 33 32 101 95 150 142 97 91 167 156 375 351 74 69 149 138
165 153 17 15 82 76 145 135 63 60 127 119 141 132 48 44 292 273 364 341 38
36 80 75 91 85 19 16 94 86 368 343 212 198 260 243 381 356 72 67 146 136
165 154 19 18 89 83 155 145 128 120 128 120 286 267 57 53 122 113 145 135
68 64 353 330 475 444 35 33 225 210 300 280 34 33 238 222 304 284 18 17 93
86 166 155 143 135 233 219 289 270 19 18 87 81 150 140 170 159 176 165 316
295 236 219 272 258 307 332 29 61 32 77 32 158 -1 80 -4 98 -33 158 -40 86
-119 165 -193 195 -30 12 -175 51 -324 87 -148 36 -315 77 -370 90 -55 14
-109 27 -120 29 -11 3 -94 23 -185 46 -91 23 -183 45 -205 50 -22 5 -78 18
-125 30 -47 12 -103 25 -125 30 -22 5 -114 27 -205 50 -91 23 -172 43 -180 45
-8 2 -103 24 -210 50 -107 26 -202 49 -210 50 -8 2 -71 18 -140 35 -134 34
-148 37 -182 45 -13 3 -50 11 -83 19 -149 37 -239 58 -254 61 -9 2 -16 4 -16
5 0 1 -9 3 -20 6 -11 2 -94 22 -185 44 -91 23 -176 43 -188 46 -13 3 -87 21
-165 40 -78 19 -153 37 -167 40 -14 3 -52 12 -85 21 -33 8 -67 16 -75 18 -8 2
-35 8 -60 15 -25 7 -52 13 -60 15 -38 8 -160 38 -205 50 -27 8 -67 17 -88 21
-21 4 -41 13 -44 20 -3 7 9 60 26 116 33 115 49 168 158 543 41 143 84 289 94
325 20 73 117 408 174 600 20 69 38 132 40 140 2 8 19 69 38 135 82 278 159
541 162 558 2 9 6 21 9 25 3 5 7 20 10 34 4 24 53 197 64 228 3 8 6 20 7 25 2
6 10 35 19 65 21 71 166 569 173 595 10 35 54 187 80 275 14 47 29 99 33 115
4 17 42 149 85 295 84 291 124 427 130 450 2 8 56 195 120 415 64 220 130 447
146 505 17 58 37 128 45 155 8 28 17 60 20 72 2 12 9 34 14 49 18 46 25 97 25
174 0 63 -5 86 -31 140 -47 98 -118 167 -214 205 -56 22 -189 28 -247 10z
m-658 -1637 c-6 -18 -66 -226 -76 -263 -4 -16 -14 -52 -22 -80 -56 -191 -177
-611 -222 -765 -145 -503 -206 -713 -230 -795 -15 -49 -28 -97 -30 -105 -4
-16 -205 -708 -232 -800 -9 -30 -17 -60 -19 -66 -1 -6 -13 -48 -27 -95 -13
-46 -27 -93 -30 -104 -3 -11 -19 -67 -37 -125 -17 -58 -33 -112 -35 -120 -2
-8 -20 -71 -40 -140 -20 -69 -38 -132 -40 -140 -2 -8 -11 -37 -19 -65 -8 -27
-28 -99 -46 -160 -17 -60 -35 -123 -41 -140 -5 -16 -26 -86 -45 -155 -20 -69
-52 -179 -71 -245 -19 -66 -39 -136 -44 -155 -5 -19 -11 -42 -14 -50 -10 -38
-48 -167 -53 -180 -8 -23 -8 -23 -16 -60 -34 -175 27 -325 173 -418 45 -29
100 -46 355 -109 165 -41 308 -76 316 -78 8 -2 56 -13 105 -25 50 -12 97 -23
105 -25 8 -2 44 -11 80 -20 36 -9 72 -18 80 -20 8 -2 128 -31 265 -65 281 -69
277 -68 308 -75 33 -7 261 -63 287 -70 3 -1 21 -5 40 -9 19 -5 235 -57 480
-117 245 -60 594 -145 775 -190 182 -44 373 -91 426 -104 53 -13 107 -26 120
-29 13 -2 82 -19 153 -37 l128 -32 -70 -66 c-39 -36 -95 -88 -124 -115 -49
-45 -259 -241 -354 -331 -23 -22 -91 -85 -150 -140 -59 -55 -124 -116 -144
-135 -21 -19 -84 -78 -141 -131 -57 -54 -125 -117 -150 -140 -25 -24 -92 -87
-149 -139 -56 -52 -126 -117 -155 -145 -29 -27 -103 -97 -165 -155 -62 -58
-127 -118 -145 -135 -17 -16 -83 -78 -146 -136 -63 -59 -130 -122 -150 -140
-20 -19 -91 -86 -159 -149 -68 -63 -140 -131 -160 -150 -20 -19 -85 -80 -145
-135 -59 -55 -127 -118 -150 -140 -37 -36 -222 -209 -315 -295 -84 -78 -299
-279 -469 -439 -69 -64 -137 -127 -151 -141 -15 -14 -83 -77 -151 -140 -68
-63 -157 -147 -199 -186 -41 -39 -108 -102 -149 -140 -41 -38 -82 -76 -90 -84
-9 -8 -52 -49 -96 -89 -44 -41 -140 -131 -214 -200 -74 -70 -166 -155 -204
-191 -162 -151 -245 -228 -392 -366 -72 -67 -146 -136 -165 -154 -19 -18 -88
-83 -154 -144 -65 -61 -133 -124 -150 -141 -18 -16 -91 -84 -162 -151 -71 -67
-142 -133 -159 -148 -16 -15 -59 -56 -95 -89 -87 -82 -316 -296 -360 -337 -19
-18 -84 -78 -144 -134 -59 -55 -120 -112 -135 -126 -15 -14 -82 -77 -150 -140
-67 -63 -139 -131 -160 -150 -21 -19 -98 -91 -171 -160 -134 -126 -154 -142
-145 -118 6 19 66 227 75 263 5 17 29 100 54 185 26 85 49 164 51 176 3 11 19
68 36 125 17 57 33 111 35 119 5 18 50 178 69 240 26 91 227 785 231 800 3 14
39 138 118 405 96 330 168 582 172 604 3 14 7 28 10 33 3 4 29 92 59 195 29
104 70 244 90 313 21 69 39 134 42 145 3 11 23 81 45 155 22 74 47 164 57 200
10 36 49 169 86 295 37 127 71 246 76 265 16 57 17 62 44 150 39 128 54 207
49 247 -13 89 -19 114 -41 157 -35 68 -94 128 -161 164 -34 18 -119 44 -212
66 -85 21 -201 48 -258 62 -57 14 -149 35 -205 48 -56 13 -229 54 -385 90
-156 37 -293 70 -305 73 -12 2 -38 9 -57 13 -19 5 -57 14 -85 20 -41 8 -147
33 -285 67 -14 3 -34 8 -45 10 -11 2 -38 8 -60 14 -22 6 -47 13 -55 14 -8 2
-55 13 -105 24 -49 12 -101 24 -115 27 -14 3 -43 10 -65 16 -22 5 -47 11 -55
13 -8 2 -123 29 -255 60 -132 31 -249 59 -261 61 -12 2 -97 22 -190 44 -93 23
-207 50 -254 61 -47 11 -130 31 -185 44 -55 13 -111 26 -125 29 -14 2 -70 15
-125 29 -55 14 -146 35 -202 48 -57 13 -103 26 -103 29 0 4 50 53 111 111 61
57 130 122 154 144 23 22 99 94 170 160 70 66 151 143 181 170 29 28 101 95
160 150 59 55 126 118 149 140 23 22 97 92 165 155 132 124 132 124 330 310
74 69 145 136 160 150 15 14 87 82 161 152 74 69 150 141 170 160 20 18 89 83
154 143 64 61 134 125 154 144 20 19 97 91 171 161 74 70 151 142 170 160 32
30 236 221 335 315 24 22 96 90 161 150 64 61 134 126 154 145 20 19 94 89
165 155 70 66 142 134 160 150 45 43 283 266 330 310 58 54 281 263 331 310
60 57 272 256 319 300 54 51 289 271 335 315 21 19 97 91 171 160 73 69 147
139 165 155 17 17 64 61 105 99 95 89 329 308 390 366 26 25 89 84 140 132 52
47 117 108 145 135 28 26 84 80 125 118 41 39 136 127 209 197 74 69 151 141
170 158 39 36 284 266 340 320 20 19 92 87 160 150 68 63 153 143 189 177 36
35 67 63 68 63 1 0 0 -6 -2 -12z"/>
<path d="M12108 12403 c-173 -29 -328 -144 -408 -303 -82 -164 -77 -402 12
-558 67 -120 208 -229 343 -268 77 -22 210 -25 294 -8 209 43 389 217 437 421
12 49 13 226 3 278 -18 85 -82 204 -146 270 -142 147 -324 204 -535 168z"/>
<path d="M4647 5734 c-184 -37 -352 -188 -418 -375 -19 -53 -23 -86 -24 -184
0 -73 5 -139 14 -170 41 -149 153 -286 290 -355 183 -93 420 -83 586 26 183
119 274 303 262 527 -13 243 -153 430 -386 515 -78 28 -230 36 -324 16z"/>
</g>
</svg>
