<?xml version="1.0" standalone="no"?>
<!DOCTYPE svg PUBLIC "-//W3C//DTD SVG 20010904//EN"
 "http://www.w3.org/TR/2001/REC-SVG-20010904/DTD/svg10.dtd">
<svg version="1.0" xmlns="http://www.w3.org/2000/svg"
 width="1056.000000pt" height="1056.000000pt" viewBox="0 0 1056.000000 1056.000000"
 preserveAspectRatio="xMidYMid meet">
<metadata>
Created by potrace 1.11, written by Peter Selinger 2001-2013
</metadata>
<g transform="translate(0.000000,1056.000000) scale(0.100000,-0.100000)"
fill="#000000" stroke="none">
<path d="M6355 9911 c-57 -26 3 38 -800 -841 -154 -168 -298 -325 -321 -350
-573 -616 -3429 -3745 -3441 -3770 -25 -51 -29 -151 -9 -204 19 -49 71 -108
118 -132 29 -15 148 -37 983 -184 193 -34 422 -74 510 -90 88 -16 356 -63 595
-105 239 -42 436 -78 437 -79 3 -2 -7 -56 -101 -591 -141 -798 -369 -2087
-391 -2215 -13 -74 -35 -200 -49 -280 -32 -179 -32 -221 -2 -285 59 -125 200
-178 327 -124 52 23 81 54 644 669 94 102 339 370 546 595 3338 3640 3368
3673 3385 3732 34 119 -9 229 -116 296 -26 16 -130 37 -530 107 -129 23 -372
65 -540 95 -168 30 -357 63 -420 74 -320 56 -866 153 -948 168 l-94 17 7 45
c4 26 43 249 86 496 44 248 95 538 114 645 100 570 274 1558 315 1785 56 312
55 304 37 365 -32 110 -127 180 -241 180 -37 0 -77 -8 -101 -19z m-376 -1491
c-43 -245 -96 -546 -119 -670 -199 -1113 -271 -1538 -265 -1574 14 -92 91
-184 174 -206 20 -5 344 -63 721 -130 377 -66 852 -150 1055 -186 204 -36 399
-70 435 -76 36 -6 66 -11 68 -13 2 -2 -126 -144 -284 -317 -158 -172 -313
-340 -343 -373 -170 -186 -1288 -1405 -1466 -1600 -242 -263 -418 -455 -1015
-1108 -234 -255 -426 -463 -428 -461 -2 1 15 107 38 236 268 1505 420 2382
420 2427 0 59 -19 108 -61 155 -64 73 -60 73 -659 176 -162 28 -329 57 -370
65 -41 8 -181 33 -310 55 -129 23 -397 70 -595 105 -198 35 -382 67 -408 71
-26 3 -47 10 -45 15 4 10 3531 3860 3534 3856 1 -1 -34 -202 -77 -447z"/>
<path d="M7570 7909 c-80 -12 -178 -58 -236 -112 -40 -37 -66 -72 -97 -136
-41 -85 -42 -88 -41 -186 3 -162 53 -265 172 -356 90 -68 173 -93 290 -87 73
4 100 11 165 41 128 60 204 155 243 306 28 110 -8 267 -82 363 -93 118 -269
190 -414 167z"/>
<path d="M2803 3531 c-167 -62 -264 -166 -304 -327 -19 -73 -4 -206 30 -280
87 -186 305 -297 490 -250 152 39 247 114 309 243 36 76 37 80 36 193 0 102
-3 121 -26 172 -36 78 -71 121 -141 175 -81 63 -143 85 -252 90 -72 3 -101 0
-142 -16z"/>
</g>
</svg>
